<svg width="73" height="37" viewBox="0 0 73 37" fill="none" xmlns="http://www.w3.org/2000/svg">
<rect x="-0.00012207" width="73" height="37" rx="5" fill="white"/>
<g clip-path="url(#clip0_1251_202)">
<path d="M15.0933 26.0008C14.4376 26.0008 13.7804 26.0008 13.1247 26.0008C13.0288 25.9804 12.9446 25.9283 12.8881 25.8546C11.5981 24.4625 10.3102 23.0684 9.02452 21.6724C8.56077 21.165 8.09382 20.6649 7.63966 20.1546C7.56517 20.0672 7.52166 19.961 7.51493 19.8504C7.49893 19.5229 7.51493 19.1938 7.51493 18.8414C7.59808 18.8414 7.68923 18.8414 7.77878 18.8414C8.8742 18.8941 9.95522 18.8414 10.9851 18.4554C11.7607 18.1629 12.3412 17.6921 12.5538 16.9156C12.5823 16.8041 12.6042 16.6914 12.6194 16.5778C12.6236 16.5203 12.6236 16.4627 12.6194 16.4052H7C7.31983 15.9666 7.60768 15.5732 7.90832 15.1872C7.9435 15.1418 8.06823 15.1389 8.14499 15.1389C9.48401 15.1389 10.8225 15.1389 12.1604 15.1389H12.4371C12.2533 14.7625 11.9407 14.451 11.5464 14.2513C10.9435 13.9291 10.257 13.7609 9.55864 13.7643C8.74467 13.7556 7.9307 13.7556 7.04318 13.7556C7.29904 13.4046 7.53252 13.1268 7.71322 12.8241C7.87633 12.555 8.08902 12.4834 8.42324 12.4834C11.2729 12.4834 14.1226 12.4834 16.9723 12.4688H17.3433C17.041 12.8943 16.766 13.2906 16.4749 13.6766C16.4414 13.7219 16.315 13.7278 16.2431 13.7292C15.5698 13.7292 14.8966 13.7292 14.2233 13.7292H13.9835L14.7175 15.1316H17.3401C17.2841 15.2164 17.2489 15.2778 17.209 15.3275C16.9867 15.639 16.7708 15.9549 16.5357 16.259C16.5041 16.2955 16.4646 16.3257 16.4198 16.3478C16.375 16.37 16.3258 16.3835 16.2751 16.3877C15.8289 16.4096 15.3827 16.4126 14.9366 16.4228C14.8614 16.4228 14.7767 16.4301 14.7271 16.4316C14.1562 18.8195 12.2516 19.5594 9.87846 19.7685C9.95362 19.8533 10.008 19.9147 10.064 19.982C11.7058 21.8577 13.3497 23.7338 14.9957 25.6104C15.0627 25.7058 15.1164 25.8085 15.1557 25.916L15.0933 26.0008Z" fill="#666666"/>
<path d="M23.5448 16.9547C23.0923 16.7389 22.7137 16.413 22.451 16.0129C22.1828 15.5996 22.0455 15.1262 22.0544 14.6457C22.0455 14.1656 22.1828 13.6927 22.451 13.2799C22.7137 12.8798 23.0923 12.554 23.5448 12.3382C24.029 12.1085 24.5681 11.9924 25.1135 12.0004C25.5859 11.9934 26.0545 12.0776 26.4888 12.2475C26.8868 12.4053 27.2366 12.6498 27.5075 12.9597L26.5096 13.7888C26.3562 13.6036 26.1579 13.4534 25.9305 13.3499C25.703 13.2464 25.4524 13.1924 25.1983 13.1922C24.9192 13.1889 24.6438 13.2513 24.3987 13.3735C24.1651 13.4926 23.9741 13.6708 23.8486 13.8868C23.7159 14.121 23.6493 14.3819 23.6551 14.6457C23.6491 14.91 23.7157 15.1714 23.8486 15.4061C23.9741 15.6217 24.1652 15.7994 24.3987 15.9179C24.6434 16.0412 24.9189 16.1042 25.1983 16.1007C25.4518 16.1011 25.7021 16.0481 25.9295 15.9456C26.157 15.8431 26.3555 15.694 26.5096 15.5099L27.5123 16.339C27.2414 16.6489 26.8916 16.8934 26.4936 17.0512C26.059 17.2203 25.5906 17.3045 25.1183 17.2983C24.5707 17.3052 24.0299 17.1871 23.5448 16.9547Z" fill="#666666"/>
<path d="M31.8396 16.2023H29.4856L29.049 17.1908H27.4499L29.8998 12.1035H31.4494L33.9136 17.1908H32.2761L31.8396 16.2023ZM31.3774 15.1407L30.6674 13.5132L29.9478 15.1407H31.3774Z" fill="#666666"/>
<path d="M35.0027 17.1392C34.6348 17.0604 34.2851 16.9227 33.9696 16.7327L34.4861 15.6711C34.7544 15.8299 35.0463 15.9525 35.3529 16.0352C35.6666 16.1251 35.9932 16.1714 36.322 16.1726C36.9264 16.1726 37.2287 16.0347 37.2287 15.7588C37.2279 15.6869 37.2025 15.6171 37.156 15.5591C37.1095 15.5012 37.0443 15.458 36.9696 15.4356C36.7009 15.3398 36.4231 15.2669 36.1397 15.2178C35.7838 15.1516 35.4333 15.0631 35.0906 14.9531C34.811 14.86 34.5617 14.7035 34.3662 14.4983C34.1544 14.2612 34.0471 13.9603 34.0656 13.6546C34.0617 13.3537 34.1594 13.059 34.3454 12.8108C34.5563 12.5477 34.8447 12.3448 35.177 12.2259C35.6062 12.0683 36.0658 11.9917 36.5283 12.0007C36.8926 12.0008 37.2558 12.0386 37.6109 12.1133C37.9395 12.1781 38.2554 12.288 38.548 12.4394L38.0682 13.5083C37.5984 13.2615 37.0684 13.1263 36.5267 13.115C36.2901 13.0999 36.0535 13.1439 35.8422 13.2422C35.7764 13.2754 35.7215 13.3241 35.6833 13.3832C35.645 13.4424 35.6248 13.5098 35.6247 13.5785C35.6269 13.6472 35.6526 13.7135 35.6982 13.7681C35.7438 13.8227 35.8071 13.8628 35.879 13.8827C36.1441 13.9766 36.4182 14.0476 36.6978 14.0947C37.0551 14.1595 37.4067 14.248 37.75 14.3594C38.0278 14.4537 38.2764 14.6082 38.4744 14.8098C38.6901 15.0462 38.7988 15.3491 38.7783 15.6565C38.7808 15.9497 38.6848 16.2365 38.5032 16.4783C38.292 16.744 38.0025 16.9494 37.6684 17.0705C37.2394 17.2285 36.7795 17.3041 36.3172 17.2928C35.8736 17.2939 35.4317 17.2423 35.0027 17.1392Z" fill="#666666"/>
<path d="M44.7958 12.1035V17.1908H43.2223V15.2065H41.0762V17.1908H39.5011V12.1035H41.0762V14.0147H43.2223V12.1035H44.7958Z" fill="#666666"/>
<path d="M51.7553 16.9498C51.2944 16.7321 50.9091 16.401 50.6429 15.9938C50.3767 15.5866 50.2403 15.1195 50.2489 14.6452C50.2406 14.1711 50.3772 13.7043 50.6433 13.2974C50.9095 12.8905 51.2946 12.5596 51.7553 12.3421C52.2477 12.1171 52.7905 12 53.3409 12C53.8913 12 54.4341 12.1171 54.9264 12.3421C55.3872 12.5596 55.7723 12.8905 56.0384 13.2974C56.3046 13.7043 56.4412 14.1711 56.4328 14.6452C56.4415 15.1195 56.305 15.5866 56.0389 15.9938C55.7727 16.401 55.3874 16.7321 54.9264 16.9498C54.4341 17.1748 53.8913 17.2919 53.3409 17.2919C52.7905 17.2919 52.2477 17.1748 51.7553 16.9498ZM54.1045 15.9174C54.3326 15.7954 54.5196 15.6184 54.645 15.4056C54.781 15.1718 54.8492 14.91 54.8433 14.6452C54.8491 14.3809 54.7808 14.1196 54.645 13.8863C54.5199 13.673 54.3328 13.4954 54.1045 13.373C53.871 13.2541 53.6082 13.1916 53.3409 13.1916C53.0736 13.1916 52.8108 13.2541 52.5773 13.373C52.3489 13.4954 52.1619 13.673 52.0368 13.8863C51.9017 14.1199 51.8335 14.381 51.8385 14.6452C51.8333 14.9099 51.9015 15.1715 52.0368 15.4056C52.1621 15.6184 52.3492 15.7954 52.5773 15.9174C52.8105 16.0372 53.0734 16.1001 53.3409 16.1001C53.6083 16.1001 53.8713 16.0372 54.1045 15.9174Z" fill="#666666"/>
<path d="M62.5544 12.1035V17.1908H61.2575L58.8028 14.4871V17.1908H57.2596V12.1035H58.5549L61.0112 14.8146V12.1035H62.5544Z" fill="#666666"/>
<path d="M22.339 20.8248H24.9712C25.5305 20.815 26.085 20.9215 26.5927 21.1363C27.0444 21.3292 27.4254 21.6375 27.6898 22.0239C27.9555 22.4293 28.0902 22.8952 28.0784 23.3678C28.0905 23.8408 27.9557 24.3072 27.6898 24.7131C27.4257 25.0994 27.0446 25.4073 26.5927 25.5992C26.0853 25.815 25.5307 25.922 24.9712 25.9122H22.339V20.8248ZM24.9104 24.7643C25.3316 24.7825 25.7437 24.6492 26.0586 24.3928C26.2062 24.2602 26.3212 24.1002 26.396 23.9237C26.4707 23.7472 26.5034 23.5582 26.492 23.3692C26.5035 23.1802 26.4708 22.9912 26.3961 22.8147C26.3214 22.6381 26.2063 22.4782 26.0586 22.3456C25.7447 22.0876 25.332 21.9536 24.9104 21.9727H23.9174V24.7643H24.9104Z" fill="#666666"/>
<path d="M33.3731 24.8021V25.9135H28.9083V20.8262H33.2724V21.9448H30.4643V22.8032H32.9366V23.878H30.4643V24.8095L33.3731 24.8021Z" fill="#666666"/>
<path d="M34.2479 20.8262H35.8214V24.7744H38.476V25.915H34.2479V20.8262Z" fill="#666666"/>
<path d="M39.0965 20.8262H40.67V25.9135H39.0965V20.8262Z" fill="#666666"/>
<path d="M47.4184 20.8262L45.0341 25.9135H43.4845L41.1082 20.8262H42.8081L44.3193 24.1383L45.8593 20.8262H47.4184Z" fill="#666666"/>
<path d="M52.2127 24.8021V25.9135H47.7447V20.8262H52.1087V21.9448H49.3022V22.8032H51.7761V23.878H49.3022V24.8095L52.2127 24.8021Z" fill="#666666"/>
<path d="M55.5197 24.5612H54.6546V25.9123H53.0794V20.825H55.6301C56.0799 20.8154 56.5268 20.8932 56.9414 21.0531C57.1962 21.1632 57.4231 21.3206 57.6077 21.5154C57.7922 21.7102 57.9303 21.938 58.0131 22.1843C58.0958 22.4307 58.1215 22.6901 58.0884 22.946C58.0553 23.2019 57.9642 23.4487 57.8209 23.6706C57.6239 23.9508 57.3438 24.174 57.0133 24.314L58.2143 25.9123H56.5288L55.5197 24.5612ZM56.2665 22.1542C56.0566 22.0106 55.7972 21.941 55.5357 21.9583H54.6546V23.4484H55.5293C55.7919 23.4685 56.0535 23.4015 56.2665 23.2597C56.3502 23.1913 56.4158 23.1064 56.4584 23.0114C56.5011 22.9164 56.5197 22.8138 56.5128 22.7114C56.52 22.6076 56.5016 22.5036 56.459 22.4072C56.4163 22.3108 56.3506 22.2243 56.2665 22.1542Z" fill="#666666"/>
<path d="M61.8699 24.09V25.9135H60.2964V24.0681L58.1727 20.8262H59.8358L61.1551 22.8471L62.4744 20.8262H64L61.8699 24.09Z" fill="#666666"/>
</g>
<defs>
<clipPath id="clip0_1251_202">
<rect width="57" height="14" fill="white" transform="translate(7 12)"/>
</clipPath>
</defs>
</svg>
