<svg width="73" height="37" viewBox="0 0 73 37" fill="none" xmlns="http://www.w3.org/2000/svg">
<rect width="73" height="37" rx="5" fill="white"/>
<path d="M47.8824 24.4H34.0488C33.9764 24.4 33.9032 24.3943 33.8309 24.4C33.6644 24.4148 33.613 24.3477 33.6404 24.1821C33.6678 24.0247 33.6811 23.8651 33.6801 23.7053C33.6801 23.511 33.7673 23.4718 33.949 23.4722C36.955 23.4774 39.9618 23.4786 42.9695 23.4757H61.7701C62.3924 23.4757 62.8034 23.2168 63.0086 22.7031C63.0652 22.5457 63.091 22.379 63.0844 22.2119C63.0844 19.4314 63.0844 16.6507 63.0844 13.8699C63.0844 13.1408 62.5864 12.6406 61.8595 12.6179C61.7797 12.6153 61.6996 12.6179 61.6198 12.6179H35.2336C35.1683 12.6179 35.1029 12.6127 35.038 12.6179C34.8907 12.6319 34.8253 12.5905 34.8545 12.424C34.8824 12.2374 34.9 12.0495 34.9072 11.861C34.9147 11.7451 34.9635 11.6867 35.0846 11.7015C35.1354 11.7043 35.1863 11.7043 35.2371 11.7015C44.0665 11.7026 52.897 11.7032 61.7287 11.7032C62.5959 11.7032 63.281 12.0231 63.7259 12.7866C63.9107 13.11 64.0046 13.4774 63.9978 13.8499C63.9978 16.6593 64.0044 19.4713 63.9948 22.279C63.9909 23.5184 63.0796 24.3978 61.8251 24.4C59.6976 24.404 57.57 24.404 55.4423 24.4H47.8824Z" fill="#5C2D90"/>
<path d="M12.0099 19.2415C12.0561 19.3988 11.9624 19.4358 11.8038 19.4524C11.221 19.5128 10.64 19.5817 10.0607 19.6589C9.90685 19.679 9.83233 19.6694 9.81185 19.4816C9.72818 18.7133 9.62403 17.9468 9.52816 17.1794C9.43374 16.4197 9.33961 15.6598 9.24578 14.8998C9.16647 14.2688 9.08585 13.6378 9.00392 13.0068C8.98518 12.8626 9.03181 12.8042 9.18215 12.7863C9.83582 12.7088 10.4864 12.6207 11.1379 12.534C11.2421 12.5201 11.3035 12.5144 11.3175 12.6608C11.4103 13.6252 11.5149 14.5883 11.6181 15.5518C11.7131 16.4433 11.8121 17.3345 11.9079 18.2261C11.9432 18.5569 11.9742 18.888 12.0099 19.2415Z" fill="#F9A51A"/>
<path d="M42.9469 17.5365C43.2815 16.9948 43.7173 16.6976 44.2838 16.6013C44.5993 16.5448 44.9235 16.5597 45.2325 16.6449C45.799 16.8031 46.0657 17.2114 46.1712 17.757C46.2396 18.1091 46.2191 18.4651 46.2208 18.8203C46.2234 19.2996 46.2208 19.779 46.2208 20.2583C46.2208 20.5198 46.2513 20.5455 46.5076 20.549C46.786 20.5525 46.786 20.5525 46.7865 20.8357C46.7865 21.3264 46.7865 21.3264 46.301 21.3264C46.1559 21.3264 46.0104 21.3303 45.8652 21.3238C45.4961 21.3072 45.3314 21.156 45.3249 20.7847C45.3127 20.081 45.3201 19.3772 45.3153 18.6734C45.3153 18.4416 45.3153 18.2089 45.256 17.9814C45.1623 17.6223 44.9292 17.4275 44.5588 17.4027C43.7404 17.3482 43.0297 17.9631 42.9425 18.8107C42.8658 19.5563 42.9168 20.3045 42.9133 21.0514C42.9133 21.261 42.8732 21.3704 42.6418 21.3277C42.5912 21.3231 42.5403 21.3231 42.4897 21.3277C41.9916 21.3277 41.9995 21.3277 42.0038 20.8357C42.0178 19.1889 42.0239 17.5417 42.0387 15.8945C42.0387 15.6905 41.9712 15.6051 41.7607 15.6108C41.436 15.6195 41.4644 15.6544 41.4635 15.3058C41.4635 14.8373 41.4635 14.8373 41.925 14.8373C42.0701 14.8373 42.2156 14.8342 42.3607 14.8373C42.7739 14.8482 42.9416 15.0147 42.9438 15.4265C42.9469 16.1041 42.9469 16.7869 42.9469 17.5365Z" fill="#5C2D90"/>
<path d="M41.0447 16.6706C41.0321 16.8013 40.9549 16.8623 40.9 16.9321C40.4542 17.5125 40.0786 18.1466 39.57 18.6795C39.5356 18.7153 39.4951 18.741 39.5487 18.8028C39.9043 19.2133 40.0995 19.7202 40.3549 20.1886C40.4943 20.4448 40.656 20.5869 40.9475 20.5564C41.104 20.5403 41.1427 20.6122 41.1445 20.759C41.1523 21.3256 41.1554 21.3007 40.5989 21.3308C40.1291 21.3565 39.8354 21.1809 39.6363 20.7569C39.4241 20.305 39.1665 19.874 38.9251 19.436C38.7944 19.2007 38.3952 19.063 38.1455 19.158C38.0374 19.199 38.0749 19.2887 38.0745 19.3624C38.0714 19.9359 38.0657 20.5093 38.0745 21.0824C38.0779 21.2676 38.0357 21.3504 37.8357 21.3269C37.6909 21.31 37.5446 21.31 37.3999 21.3269C37.1977 21.3513 37.1602 21.2641 37.1619 21.0811C37.1763 19.3615 37.1829 17.6415 37.1907 15.9219C37.1907 15.596 37.1707 15.565 36.8478 15.5777C36.6621 15.5851 36.6177 15.5232 36.6203 15.345C36.6286 14.8068 36.6203 14.8055 37.1506 14.8077C37.3463 14.8077 37.5428 14.7933 37.7372 14.8277C37.9315 14.8621 38.0518 14.9702 38.0797 15.1681C38.092 15.2539 38.0983 15.3406 38.0984 15.4273C38.0984 16.3276 38.1054 17.2275 38.0945 18.1291C38.0919 18.3274 38.1546 18.3688 38.3407 18.3684C38.6776 18.3684 38.9355 18.2751 39.1303 17.9736C39.3918 17.5722 39.6916 17.1983 39.9688 16.8079C39.9964 16.7618 40.0363 16.7243 40.084 16.6996C40.1317 16.6748 40.1854 16.6639 40.239 16.668C40.5065 16.6754 40.7728 16.6706 41.0447 16.6706Z" fill="#5C2D90"/>
<path d="M55.2514 18.6537C55.2514 18.3051 55.2449 17.9565 55.254 17.6079C55.2579 17.451 55.2139 17.39 55.0466 17.39C54.6295 17.3921 54.6295 17.3839 54.63 16.9616C54.63 16.667 54.63 16.667 54.9228 16.6666C55.251 16.6666 55.251 16.6666 55.2514 16.3389C55.2514 16.0848 55.2571 15.8303 55.2514 15.5767C55.247 15.4342 55.2832 15.371 55.4431 15.3675C56.133 15.3514 56.1325 15.3462 56.1325 16.0351C56.1325 16.1877 56.1382 16.3402 56.1325 16.4927C56.1264 16.6234 56.1805 16.6718 56.3112 16.667C56.5653 16.6605 56.8193 16.6692 57.0734 16.664C57.1889 16.6618 57.2377 16.6936 57.2438 16.8217C57.2703 17.393 57.2747 17.3926 56.7038 17.3926C56.133 17.3926 56.1321 17.3926 56.1338 17.9591C56.1338 18.5103 56.129 19.0625 56.1478 19.615C56.1674 20.2094 56.5117 20.5406 57.1 20.5411C57.2791 20.5411 57.3575 20.589 57.3287 20.772C57.3263 20.801 57.3263 20.8302 57.3287 20.8592C57.3287 21.3507 57.3287 21.3507 56.8398 21.315C55.8262 21.2405 55.271 20.6522 55.2562 19.6333C55.2475 19.3074 55.2514 18.9801 55.2514 18.6537Z" fill="#5C2D90"/>
<path d="M53.6669 17.847C53.6669 18.6378 53.6669 19.4289 53.6669 20.2202C53.6669 20.5253 53.6891 20.558 53.985 20.5431C54.1872 20.5331 54.2421 20.5989 54.2378 20.7976C54.2256 21.3249 54.2347 21.3271 53.6996 21.3245C53.5118 21.3245 53.3227 21.3406 53.1361 21.2966C52.9379 21.25 52.8154 21.1323 52.7849 20.9305C52.7683 20.8233 52.7597 20.7149 52.7592 20.6063C52.7592 19.0532 52.7592 17.5001 52.7592 15.947C52.7592 15.6389 52.7474 15.6154 52.4424 15.6293C52.2402 15.6389 52.184 15.5723 52.1883 15.3735C52.2001 14.8711 52.1883 14.8711 52.6921 14.8711C52.8298 14.8711 52.9679 14.8711 53.1056 14.8711C53.4909 14.8755 53.6647 15.0454 53.6665 15.4302C53.6669 16.2346 53.6669 17.0404 53.6669 17.847Z" fill="#5C2D90"/>
<path d="M58.5886 19.2094C58.5886 18.7165 58.582 18.2232 58.5916 17.7304C58.5951 17.5273 58.5262 17.4389 58.3158 17.4432C58.0225 17.4489 58.022 17.4402 58.022 17.1382C58.022 16.6697 58.022 16.6697 58.4861 16.6697C58.6239 16.6697 58.762 16.6658 58.8997 16.6697C59.3355 16.688 59.4954 16.8527 59.4963 17.2929C59.4963 18.2225 59.4963 19.1507 59.4963 20.0775C59.4963 20.1498 59.5006 20.2226 59.4963 20.2954C59.4849 20.484 59.5747 20.552 59.7577 20.5481C60.0745 20.5411 60.0628 20.4993 60.0628 20.8505C60.0628 21.3234 60.0628 21.3234 59.5913 21.3234C59.4462 21.3234 59.301 21.3268 59.1555 21.319C58.7528 21.2972 58.5947 21.1381 58.589 20.7324C58.5838 20.2248 58.5912 19.7171 58.5886 19.2094Z" fill="#5C2D90"/>
<path d="M59.4165 15.2956C59.403 15.758 59.5338 15.775 58.9372 15.7728C58.63 15.7728 58.6278 15.7693 58.6269 15.4551C58.6269 15.4333 58.6269 15.4115 58.6269 15.3902C58.6387 14.7448 58.5245 14.8446 59.1904 14.8302C59.3577 14.8267 59.4335 14.8873 59.4191 15.0573C59.4109 15.1361 59.4161 15.2163 59.4165 15.2956Z" fill="#5B2D90"/>
<path d="M32.7698 9.00116H16.6261C15.5802 9.00116 14.5343 8.99855 13.4885 9.00116C12.7416 9.00596 12.257 9.58118 12.3398 10.3211C12.4862 11.6189 12.6126 12.9183 12.7477 14.217C12.8987 15.682 13.0492 17.147 13.1991 18.6117C13.3665 20.2206 13.5312 21.8299 13.7072 23.4379C13.8188 24.4537 14.3108 25.2638 15.1789 25.7863C17.41 27.1297 19.6534 28.4527 21.909 29.7554C22.7343 30.2347 23.6172 30.2369 24.4439 29.7584C26.6789 28.4642 28.8966 27.1403 31.1234 25.8317C31.9815 25.327 32.4678 24.5705 32.6295 23.604C32.7014 23.1752 32.724 22.7385 32.7693 22.3058C32.9219 20.8486 33.0751 19.3915 33.2291 17.9345C33.3825 16.4625 33.5353 14.9906 33.6875 13.5188C33.7978 12.4512 33.9241 11.3835 34.0117 10.3146C34.0788 9.47616 33.6099 9.00116 32.7698 9.00116ZM28.5493 23.5726C28.3658 24.0127 28.0264 24.2698 27.5557 24.316C27.0851 24.3622 26.7025 24.1796 26.4327 23.7866C25.5955 22.5664 24.7599 21.3443 23.9262 20.1204C23.6272 19.6846 23.3248 19.2488 23.0315 18.807C22.9544 18.6911 22.9099 18.661 22.7966 18.7756C22.1784 19.3993 21.555 20.018 20.9263 20.6316C20.8843 20.6705 20.8515 20.7182 20.8301 20.7713C20.8087 20.8244 20.7993 20.8816 20.8025 20.9388C20.8069 21.643 20.8091 22.3476 20.8025 23.0518C20.7973 23.6619 20.4413 24.1347 19.8874 24.2842C19.137 24.4877 18.3962 23.9221 18.3709 23.1238C18.3644 22.9281 18.3709 22.7316 18.3709 22.5359C18.3709 19.3693 18.3709 16.2036 18.3709 13.0391C18.3709 12.2725 18.9278 11.7291 19.663 11.767C20.3214 11.8006 20.7999 12.3396 20.8025 13.0656C20.8069 14.3869 20.8025 15.7086 20.8025 17.0312V17.3301C20.9041 17.2334 20.9616 17.1811 21.0165 17.1262C22.6663 15.4772 24.3156 13.8293 25.9643 12.1823C26.431 11.7165 27.0411 11.6306 27.5474 11.9553C27.6834 12.0431 27.8003 12.1575 27.8912 12.2914C27.9821 12.4254 28.045 12.5763 28.0764 12.7351C28.1077 12.8939 28.1068 13.0574 28.0737 13.2159C28.0405 13.3743 27.9758 13.5245 27.8834 13.6574C27.8105 13.7567 27.7293 13.8498 27.6407 13.9354C26.7073 14.871 25.776 15.8093 24.8343 16.7357C24.6866 16.8813 24.6984 16.9715 24.8082 17.1305C26.0013 18.8641 27.1844 20.6045 28.375 22.3398C28.6399 22.7281 28.7341 23.1299 28.5493 23.5726Z" fill="#5C2D90"/>
<path d="M51.6218 20.5435C51.2959 20.5518 51.2763 20.5239 51.2732 20.2005C51.2702 19.4963 51.2867 18.7912 51.2614 18.0879C51.2322 17.2926 50.7908 16.7745 50.0465 16.6268C49.5607 16.5281 49.059 16.5398 48.5784 16.6612C47.9443 16.8211 47.7382 17.1039 47.7709 17.7484C47.7774 17.8744 47.8241 17.9132 47.9408 17.9097C48.1151 17.9044 48.2895 17.9044 48.4638 17.9097C48.5806 17.9132 48.6307 17.8748 48.6381 17.7493C48.6525 17.4504 48.7183 17.3833 49.0137 17.3179C49.1695 17.282 49.3294 17.2674 49.4891 17.2743C50.0992 17.3066 50.4126 17.6486 50.3999 18.26C50.3973 18.3877 50.3529 18.423 50.2352 18.4235C50.0465 18.4235 49.8578 18.4326 49.6687 18.4496C49.0647 18.5032 48.4686 18.5938 47.9574 18.9542C47.2336 19.4645 47.1987 20.4868 47.8794 21.0542C48.5453 21.6094 49.643 21.5205 50.2025 20.8642C50.2762 20.7771 50.3389 20.6829 50.4326 20.557C50.4326 20.659 50.4326 20.7209 50.4326 20.7827C50.4404 21.1209 50.5755 21.2721 50.912 21.3083C51.0351 21.3172 51.1585 21.3198 51.2819 21.3161C51.8458 21.3161 51.8393 21.3161 51.8415 20.7614C51.8463 20.5893 51.7931 20.5391 51.6218 20.5435ZM50.3786 19.6345C50.2252 20.2249 49.8173 20.6293 49.3022 20.7021C48.676 20.7893 48.2128 20.3099 48.3901 19.7582C48.472 19.5011 48.6634 19.3543 48.9043 19.2641C49.0127 19.2224 49.1243 19.19 49.2381 19.1673C49.4572 19.1219 49.6803 19.0992 49.904 19.0998C50.4893 19.0884 50.5123 19.1185 50.3786 19.6345Z" fill="#5C2D90"/>
</svg>
